<?xml version="1.0" encoding="utf-8"?>
<!-- Generator: Adobe Illustrator 23.1.0, SVG Export Plug-In . SVG Version: 6.00 Build 0)  -->
<svg version="1.1" xmlns="http://www.w3.org/2000/svg" xmlns:xlink="http://www.w3.org/1999/xlink" x="0px" y="0px"
	 viewBox="50 -300 800 1000" style="enable-background:new 0 0 800 1000;" xml:space="preserve">
<g id="Layer_2">
	<path class="st3" d="M587.22,375.15c0,3.36,3.36,6.72,6.72,6.72c124.38,0,124.38,0,124.38,0c3.36,0,6.72-3.36,6.72-6.72
		c0-238.67,0-238.67,0-238.67c0-3.36-3.36-6.72-6.72-6.72c-124.38,0-124.38,0-124.38,0c-3.36,0-6.72,3.36-6.72,6.72V375.15z
		 M392.25,375.15c0,3.36,0,6.72,3.36,6.72c127.74,0,127.74,0,127.74,0c3.36,0,6.72-3.36,6.72-6.72c0-238.67,0-238.67,0-238.67
		c0-3.36-3.36-6.72-6.72-6.72c-127.74,0-127.74,0-127.74,0c-3.36,0-3.36,3.36-3.36,6.72C392.25,375.15,392.25,375.15,392.25,375.15z
		 M193.92,375.15c0,3.36,3.36,6.72,6.72,6.72c124.38,0,124.38,0,124.38,0c3.36,0,6.72-3.36,6.72-6.72c0-238.67,0-238.67,0-238.67
		c0-3.36-3.36-6.72-6.72-6.72c-124.38,0-124.38,0-124.38,0c-3.36,0-6.72,3.36-6.72,6.72C193.92,375.15,193.92,375.15,193.92,375.15z
		 M82.99,341.54c0-174.8,0-174.8,0-174.8c-53.79,0-53.79,0-53.79,0c-3.36,0-6.72,6.72-6.72,10.08c0,157.99,0,157.99,0,157.99
		c0,3.36,3.36,6.72,6.72,6.72C82.99,341.54,82.99,341.54,82.99,341.54z M109.88,435.66c0-359.69,0-359.69,0-359.69
		c0-10.08,6.72-16.81,16.81-16.81c665.59,0,665.59,0,665.59,0c6.72,0,16.81,6.72,16.81,16.81c0,359.69,0,359.69,0,359.69
		c0,10.08-10.08,16.81-16.81,16.81c-665.59,0-665.59,0-665.59,0C116.6,452.47,109.88,445.75,109.88,435.66z"/>
</g>
</svg>
