<?xml version="1.0" encoding="utf-8"?>
<!-- Generator: Adobe Illustrator 23.1.0, SVG Export Plug-In . SVG Version: 6.00 Build 0)  -->
<svg version="1.1" xmlns="http://www.w3.org/2000/svg" xmlns:xlink="http://www.w3.org/1999/xlink" x="0px" y="0px"
	 viewBox="125 -150 800 800" style="enable-background:new 0 0 600 800;" xml:space="preserve">
<g id="Layer_1" class="st0">
</g>
<g id="Layer_4">
	<path class="st1" d="M507.38,130.67c-217.3,285.97-217.3,285.97-217.3,285.97c-14.35,20.28-43.05,24.34-63.55,10.14
		c-18.45-14.2-22.55-42.59-8.2-62.87c250.1-328.56,250.1-328.56,250.1-328.56c8.2-12.17,24.6-18.25,38.95-16.23
		c16.4-2.03,30.75,4.06,41,16.23c248.05,328.56,248.05,328.56,248.05,328.56c16.4,20.28,12.3,48.68-8.2,62.87
		c-20.5,14.2-47.15,10.14-63.55-10.14L507.38,130.67z"/>
	<polygon class="st1" points="743.46,94.16 743.46,263.72 643.27,135.65 643.27,94.16 	"/>
	<path class="st1" d="M502.3,363.06c-26.45-28.46-26.45-28.46-26.45-28.46c0,12.2,0,12.2,0,12.2
		c-34.59,10.16-59.01,42.68-59.01,79.27c0,6.1,0,10.16,2.03,14.23c30.52-16.26,30.52-16.26,30.52-16.26
		c0-18.29,10.17-34.55,26.45-44.72c0,12.2,0,12.2,0,12.2L502.3,363.06z M563.35,448.43c36.63-14.23,36.63-14.23,36.63-14.23
		c-12.21-4.07-12.21-4.07-12.21-4.07c0-2.03,0-2.03,0-4.07c0-36.59-26.45-69.11-59.01-79.27c0,32.52,0,32.52,0,32.52
		c14.24,8.13,22.38,22.36,26.45,38.62c-10.17-4.07-10.17-4.07-10.17-4.07L563.35,448.43z M689.52,434.2c0,130.09,0,130.09,0,130.09
		c-95.64,0-95.64,0-95.64,0c-168.9,0-168.9,0-168.9,0c-97.68,0-97.68,0-97.68,0c0-130.09,0-130.09,0-130.09
		c177.04-239.85,177.04-239.85,177.04-239.85c8.14,0,8.14,0,8.14,0L689.52,434.2z M486.02,466.72c-38.66-6.1-38.66-6.1-38.66-6.1
		c-10.17,38.62-10.17,38.62-10.17,38.62c10.17-8.13,10.17-8.13,10.17-8.13c14.24,12.2,34.59,20.33,54.94,20.33
		c22.38,0,42.73-8.13,56.98-22.36c-26.45-18.29-26.45-18.29-26.45-18.29c-10.17,6.1-20.35,10.16-30.52,10.16
		c-10.17,0-18.31-4.07-26.45-8.13L486.02,466.72z"/>
</g>
</svg>
