<?xml version="1.0" encoding="utf-8"?>
<!-- Generator: Adobe Illustrator 23.1.0, SVG Export Plug-In . SVG Version: 6.00 Build 0)  -->
<svg version="1.1" xmlns="http://www.w3.org/2000/svg" xmlns:xlink="http://www.w3.org/1999/xlink" x="0px" y="0px"
	 viewBox="50 -100 600 800" style="enable-background:new 0 0 600 800;" xml:space="preserve">
<g id="Layer_3">
	<path class="st2" d="M227.68,458.87c81.13-36.2,81.13-36.2,81.13-36.2C239,392.19,239,392.19,239,392.19L227.68,458.87z
		 M252.21,325.51c75.47-53.34,75.47-53.34,75.47-53.34c-58.49-41.91-58.49-41.91-58.49-41.91L252.21,325.51z M286.17,144.52
		c45.28-32.39,45.28-32.39,45.28-32.39C295.6,85.46,295.6,85.46,295.6,85.46L286.17,144.52z M344.66,102.61
		c30.19-20.96,30.19-20.96,30.19-20.96c-60.38,0-60.38,0-60.38,0L344.66,102.61z M397.49,140.71c-9.43-51.44-9.43-51.44-9.43-51.44
		c-30.19,22.86-30.19,22.86-30.19,22.86L397.49,140.71z M410.7,211.2c-9.43-49.53-9.43-49.53-9.43-49.53
		c-56.6-40.01-56.6-40.01-56.6-40.01c-64.15,45.72-64.15,45.72-64.15,45.72c-7.55,40.01-7.55,40.01-7.55,40.01
		c1.89,0,1.89,0,3.77,1.91c69.81,49.53,69.81,49.53,69.81,49.53c62.26-45.72,62.26-45.72,62.26-45.72S410.7,213.11,410.7,211.2z
		 M431.46,319.8c-15.09-83.83-15.09-83.83-15.09-83.83c-52.83,36.2-52.83,36.2-52.83,36.2L431.46,319.8z M439,363.61
		c-1.89-13.34-1.89-13.34-1.89-13.34s-1.89,0-1.89-1.91c-88.68-62.87-88.68-62.87-88.68-62.87c-96.23,68.59-96.23,68.59-96.23,68.59
		c-1.89,0-3.77,1.91-3.77,1.91c-3.77,13.34-3.77,13.34-3.77,13.34c92.45,41.91,92.45,41.91,92.45,41.91L439,363.61z M222.02,489.35
		c235.85,0,235.85,0,235.85,0C335.23,434.1,335.23,434.1,335.23,434.1c-111.32,49.53-111.32,49.53-111.32,49.53
		c-1.89,0-1.89,0-1.89,0V489.35z M457.87,464.59c-13.21-78.11-13.21-78.11-13.21-78.11c-83.02,36.2-83.02,36.2-83.02,36.2
		L457.87,464.59z M472.97,544.6c-5.66-34.29-5.66-34.29-5.66-34.29c-1.89,0-1.89,0-1.89,0c-247.17,0-247.17,0-247.17,0
		c-7.55,34.29-7.55,34.29-7.55,34.29H472.97z M544.66,544.6c0,17.15,0,17.15,0,17.15c-405.67,0-405.67,0-405.67,0
		c0-17.15,0-17.15,0-17.15c52.83,0,52.83,0,52.83,0l0,0c84.91-462.95,84.91-462.95,84.91-462.95c-18.87,0-18.87,0-18.87,0
		c0-30.48,0-30.48,0-30.48c169.81,0,169.81,0,169.81,0c0,30.48,0,30.48,0,30.48c-20.75,0-20.75,0-20.75,0
		c86.79,462.95,86.79,462.95,86.79,462.95l0,0H544.66z"/>
	<polygon class="st2" points="425.76,44.18 343.48,44.18 257.9,44.18 300.69,16.2 313.85,16.2 313.85,31.12 371.45,31.12 
		371.45,16.2 382.97,16.2 	"/>
</g>

</svg>
