<svg id="Layer_5" data-name="Layer 5" xmlns="http://www.w3.org/2000/svg" viewBox="-75 -175 600 800"><defs></defs><title>Solar4</title><polygon class="cls-1" points="468.67 0 480.86 40.41 454.73 274.42 425.11 299.67 446.02 146.47 468.67 1.68 468.67 0"/><polygon class="cls-1" points="459.96 0 449.86 69.69 362.39 69.69 370.8 8.71 372.48 5.23 459.96 0"/><polygon class="cls-1" points="432.08 148.01 423.99 216.04 341.48 212.72 351.19 146.35 432.08 148.01"/><polygon class="cls-1" points="425.11 226.34 414.84 299.67 327.54 294.67 337.81 223.01 425.11 226.34"/><polygon class="cls-1" points="355.42 6.97 346.71 69.69 250.88 69.69 263.08 10.45 355.42 6.97"/><polygon class="cls-1" points="341.48 83.63 334.74 132.41 236.95 130.73 247.06 83.63 250.44 83.63 341.48 83.63"/><polygon class="cls-1" points="334.51 141.04 324.53 209.07 223.01 204.09 236.32 139.38 237.99 139.38 334.51 141.04"/><polygon class="cls-1" points="327.54 222.71 317.24 292.7 209.07 287.7 222.81 216.04 327.54 222.71"/><path class="cls-1" d="M629.52,551.7v18.44H504.08V551.7c0-8.2,7.49-16.4,16.85-16.4h91.74C622,535.3,629.52,543.5,629.52,551.7Z" transform="translate(-329.86 -75.34)"/><path class="cls-1" d="M565,509.38l-8.25-112h-8.26v112ZM594.68,381.9V528.33H532V375Z" transform="translate(-329.86 -75.34)"/><polygon class="cls-1" points="250.88 6.97 238.47 69.69 153.32 69.69 169.28 10.66 250.88 6.97"/><polygon class="cls-1" points="236.95 83.63 228.39 125.44 139.38 122.46 153.07 83.63 236.95 83.63"/><polygon class="cls-1" points="223.01 140.95 211.01 202.1 118.47 195.83 135.61 139.38 223.01 140.95"/><polygon class="cls-1" points="209.07 214.18 197.25 285.73 97.57 277.21 116.15 209.07 209.07 214.18"/><polygon class="cls-1" points="160.29 13.94 144.99 69.69 90.6 69.69 110.99 15.68 160.29 13.94"/><polygon class="cls-1" points="139.38 83.63 125.44 125.44 62.72 123.83 80.14 83.63 139.38 83.63"/><polygon class="cls-1" points="125.44 134.11 107.68 195.13 34.84 190.05 59.72 132.41 125.44 134.11"/><polygon class="cls-1" points="104.53 207.45 81.89 278.76 0 273.41 29.62 202.1 104.53 207.45"/></svg>